<svg width="24" height="24" viewBox="0 0 24 24" fill="none" xmlns="http://www.w3.org/2000/svg">
<path d="M18.2509 8.73745C18.2509 9.58341 17.5653 10.2692 16.7196 10.2692C15.8738 10.2692 15.1882 9.58341 15.1882 8.73745C15.1882 7.89148 15.8738 7.20569 16.7196 7.20569C17.5653 7.20569 18.2509 7.89148 18.2509 8.73745Z" fill="#01BCFF"/>
<path d="M10.7393 7.20573C10.7393 8.42392 9.75204 9.41146 8.5342 9.41146C7.31636 9.41146 6.3291 8.42392 6.3291 7.20573C6.3291 5.98754 7.31636 5 8.5342 5C9.75204 5 10.7393 5.98754 10.7393 7.20573Z" fill="#2D66FE"/>
<path fill-rule="evenodd" clip-rule="evenodd" d="M16.8807 14.511C15.7201 14.511 14.9213 14.8443 14.3565 15.2837L12.9236 13.442C13.9221 12.6651 15.2324 12.1775 16.8807 12.1775C19.1147 12.1775 20.7331 12.8779 21.79 13.9776C22.8263 15.0559 23.2124 16.4046 23.2124 17.5164C23.2124 18.1607 22.6901 18.6831 22.0457 18.6831C21.4013 18.6831 20.879 18.1607 20.879 17.5164C20.879 16.9102 20.6633 16.1728 20.1076 15.5945C19.5723 15.0376 18.6081 14.511 16.8807 14.511Z" fill="#01BCFF"/>
<path fill-rule="evenodd" clip-rule="evenodd" d="M4.38729 14.819C3.62116 15.6625 3.33347 16.7189 3.33347 17.5164C3.33347 18.1608 2.81111 18.6832 2.16674 18.6832C1.52237 18.6832 1 18.1608 1 17.5164C1 16.2279 1.44778 14.5847 2.65995 13.2501C3.9008 11.8839 5.84282 10.9504 8.60902 10.9504C11.3153 10.9504 13.228 11.8702 14.4534 13.2307C15.6504 14.5596 16.0953 16.2025 16.0953 17.5164C16.0953 18.1608 15.573 18.6832 14.9286 18.6832C14.2842 18.6832 13.7619 18.1608 13.7619 17.5164C13.7619 16.6829 13.4706 15.6262 12.7195 14.7924C11.9969 13.99 10.7498 13.2839 8.60903 13.2839C6.40388 13.2839 5.12475 14.007 4.38729 14.819Z" fill="#2D66FE"/>
</svg>
