<svg width="1440" height="543" viewBox="0 0 1440 543" fill="none" xmlns="http://www.w3.org/2000/svg">
<g clip-path="url(#clip0)">
<path d="M121.037 503.962C106.419 420.104 33.5274 358.049 -51.6165 356.983C-61.0381 356.864 -68.8117 349.58 -69.563 340.187L-72.6364 301.87C-73.4861 291.243 -65.0894 282.184 -54.4229 282.148C-27.23 282.062 -0.45163 286.333 25.4179 294.91C56.4111 305.184 84.7782 321.162 109.735 342.406C134.693 363.651 154.992 389.103 170.071 418.052C182.659 442.22 191.148 467.96 195.392 494.813C197.055 505.343 189.446 515.076 178.815 515.931L140.484 519.003C131.089 519.755 122.652 513.24 121.037 503.962Z" fill="#2D66FE"/>
<circle cx="1440" cy="91" r="91" fill="#01BCFF"/>
</g>
<defs>
<clipPath id="clip0">
<rect width="1440" height="543" fill="white"/>
</clipPath>
</defs>
</svg>
