<svg width="18" height="15" viewBox="0 0 18 15" fill="none" xmlns="http://www.w3.org/2000/svg">
<path d="M1.01507 8.01581L1.0188 8.02701L1.02714 8.03535C1.0625 8.07071 1.08029 8.10571 1.10111 8.14736L1.10184 8.14881C1.12251 8.19016 1.14639 8.23794 1.19381 8.28535L7.02714 14.1187C7.11343 14.205 7.2017 14.2717 7.30261 14.3165C7.40374 14.3615 7.515 14.3833 7.64583 14.3833C7.77667 14.3833 7.88793 14.3615 7.98906 14.3165C8.08997 14.2717 8.17824 14.205 8.26452 14.1187C8.61738 13.7658 8.61738 13.2342 8.26452 12.8813L3.93321 8.55H16.8125C17.0739 8.55 17.2956 8.46266 17.452 8.30619C17.6085 8.14972 17.6958 7.92803 17.6958 7.66667C17.6958 7.4053 17.6085 7.18362 17.452 7.02714C17.2956 6.87067 17.0739 6.78333 16.8125 6.78333H3.93321L8.26452 2.45202C8.61738 2.09916 8.61738 1.5675 8.26452 1.21464C7.91166 0.861785 7.38 0.861785 7.02714 1.21464L1.19381 7.04798L1.19233 7.04946C1.15173 7.09006 1.10798 7.13381 1.07458 7.17833C1.04286 7.22063 1.0154 7.27009 1.01272 7.32462C0.971514 7.44978 0.95 7.55749 0.95 7.66667C0.95 7.7779 0.972333 7.88761 1.01507 8.01581Z" fill="#2D66FE" stroke="#2D66FE" stroke-width="0.1"/>
</svg>
