<svg width="1440" height="1020" viewBox="0 0 1440 1020" fill="none" xmlns="http://www.w3.org/2000/svg">
<g clip-path="url(#clip0)">
<path d="M1424.74 829.68C1340.64 842.885 1277.37 914.722 1274.87 999.836C1274.6 1009.25 1267.18 1016.9 1257.78 1017.5L1219.41 1019.93C1208.77 1020.6 1199.86 1012.05 1200 1001.38C1200.37 974.192 1205.09 947.489 1214.1 921.768C1224.9 890.952 1241.35 862.858 1263.01 838.262C1284.68 813.665 1310.47 793.798 1339.66 779.207C1364.04 767.029 1389.92 758.974 1416.84 755.182C1427.4 753.697 1437 761.469 1437.68 772.112L1440.1 810.489C1440.7 819.896 1434.04 828.222 1424.74 829.68Z" fill="#11C0FF"/>
<circle cx="-11" cy="305" r="91" fill="#2D66FE"/>
</g>
<defs>
<clipPath id="clip0">
<rect width="1440" height="1020" fill="white"/>
</clipPath>
</defs>
</svg>
