<svg width="1440" height="272" viewBox="0 0 1440 272" fill="none" xmlns="http://www.w3.org/2000/svg">
<g clip-path="url(#clip0)">
<path d="M166.282 268.737C153.078 184.645 81.2402 121.372 -3.87361 118.873C-13.2919 118.596 -20.9418 111.181 -21.535 101.777L-23.963 63.4135C-24.6337 52.7739 -16.0858 43.8576 -5.42022 44.0017C21.7703 44.373 48.473 49.0943 74.1945 58.1048C105.01 68.8996 133.105 85.3523 157.701 107.014C182.297 128.676 202.165 154.466 216.755 183.664C228.934 208.041 236.988 233.92 240.78 260.84C242.266 271.397 234.494 281 223.851 281.676L185.473 284.103C176.066 284.696 167.74 278.041 166.282 268.737Z" fill="#2D66FE"/>
</g>
<defs>
<clipPath id="clip0">
<rect width="1440" height="272" fill="white"/>
</clipPath>
</defs>
</svg>
