<svg width="1440" height="500" viewBox="0 0 1440 500" fill="none" xmlns="http://www.w3.org/2000/svg">
<g clip-path="url(#clip0)">
<path d="M166.282 484.737C153.078 400.645 81.2407 337.372 -3.87312 334.873C-13.2914 334.596 -20.9413 327.181 -21.5345 317.777L-23.9625 279.414C-24.6332 268.774 -16.0853 259.858 -5.41973 260.002C21.7708 260.373 48.4735 265.094 74.195 274.105C105.011 284.9 133.105 301.352 157.701 323.014C182.297 344.676 202.165 370.466 216.755 399.664C228.934 424.041 236.989 449.92 240.781 476.84C242.266 487.397 234.494 497 223.851 497.676L185.474 500.103C176.067 500.696 167.74 494.041 166.282 484.737Z" fill="#2D66FE"/>
<circle cx="1" cy="117" r="91" fill="#2D66FE"/>
</g>
<defs>
<clipPath id="clip0">
<rect width="1440" height="500" fill="white"/>
</clipPath>
</defs>
</svg>
