<svg width="1440" height="500" viewBox="0 0 1440 500" fill="none" xmlns="http://www.w3.org/2000/svg">
<g clip-path="url(#clip0)">
<circle cx="1440" cy="91" r="91" fill="#01BCFF"/>
<path d="M1436.74 300.68C1352.65 313.885 1289.37 385.722 1286.87 470.836C1286.6 480.254 1279.18 487.904 1269.78 488.497L1231.41 490.925C1220.77 491.596 1211.86 483.048 1212 472.383C1212.37 445.192 1217.09 418.489 1226.11 392.768C1236.9 361.952 1253.35 333.858 1275.01 309.262C1296.68 284.665 1322.47 264.798 1351.66 250.207C1376.04 238.029 1401.92 229.974 1428.84 226.182C1439.4 224.697 1449 232.469 1449.68 243.112L1452.1 281.489C1452.7 290.896 1446.04 299.222 1436.74 300.68Z" fill="#11C0FF"/>
</g>
<defs>
<clipPath id="clip0">
<rect width="1440" height="500" fill="white"/>
</clipPath>
</defs>
</svg>
