<svg width="24" height="24" viewBox="0 0 24 24" fill="none" xmlns="http://www.w3.org/2000/svg">
<path d="M15.2515 12.0229L23.343 3.93143C24.2115 3.01714 24.2115 1.55429 23.343 0.685714C22.4744 -0.182857 21.0115 -0.228571 20.0973 0.685714L12.0058 8.77714L3.9144 0.685714C3.00011 -0.228571 1.58297 -0.228571 0.668681 0.685714C-0.245604 1.6 -0.19989 3.01714 0.668681 3.93143L8.76011 12.0229L0.668681 20.1143C-0.19989 20.9829 -0.19989 22.4457 0.668681 23.36C1.12582 23.7714 1.72011 24 2.3144 24C2.90868 24 3.45725 23.7714 3.9144 23.36L12.0058 15.2229L20.0973 23.36C20.5544 23.7714 21.1487 24 21.743 24C22.3373 24 22.8858 23.7714 23.343 23.36C24.2115 22.4457 24.2115 20.9829 23.343 20.1143L15.2515 12.0229Z" fill="#687086" fill-opacity="0.6"/>
</svg>
