<svg width="12" height="11" viewBox="0 0 12 11" fill="none" xmlns="http://www.w3.org/2000/svg">
<path d="M1.41514 3.54643C1.41514 3.93862 1.41514 4.3308 1.41514 4.723C1.41514 5.51554 1.41514 6.30808 1.41514 7.10062C1.41514 7.71746 1.41514 8.33431 1.41514 8.95115C1.41514 9.04123 1.40851 9.13503 1.42012 9.22469C1.41494 9.18618 1.40976 9.14769 1.4046 9.10919C1.41101 9.14758 1.4212 9.18396 1.43572 9.22008C1.42112 9.18549 1.40651 9.15089 1.39193 9.11631C1.40738 9.15109 1.42589 9.18315 1.44829 9.21392C1.42565 9.18462 1.40301 9.1553 1.38036 9.12601C1.40701 9.16008 1.43671 9.18978 1.47078 9.21643C1.44149 9.19379 1.41217 9.17115 1.38287 9.1485C1.41364 9.1709 1.44571 9.18941 1.48048 9.20486C1.4459 9.19027 1.4113 9.17566 1.37671 9.16107C1.41282 9.17559 1.44921 9.18579 1.4876 9.19219C1.4491 9.18703 1.41061 9.18185 1.3721 9.17667C1.4595 9.18799 1.55091 9.18165 1.63872 9.18165C1.83058 9.18165 2.02243 9.18165 2.21428 9.18165C2.86229 9.18165 3.51029 9.18165 4.15828 9.18165C4.97052 9.18165 5.78277 9.18165 6.59501 9.18165C7.34573 9.18165 8.09645 9.18165 8.84718 9.18165C9.31061 9.18165 9.77405 9.18165 10.2375 9.18165C10.3141 9.18165 10.3934 9.18654 10.4696 9.17667C10.431 9.18185 10.3926 9.18703 10.3541 9.19219C10.3924 9.18579 10.4288 9.17559 10.4649 9.16107C10.4304 9.17567 10.3958 9.19028 10.3612 9.20486C10.396 9.18941 10.428 9.1709 10.4588 9.1485C10.4295 9.17114 10.4002 9.19378 10.3709 9.21643C10.4049 9.18978 10.4346 9.16008 10.4613 9.12601C10.4387 9.1553 10.416 9.18462 10.3934 9.21392C10.4158 9.18315 10.4343 9.15108 10.4497 9.11631C10.4351 9.15089 10.4205 9.18549 10.406 9.22008C10.4205 9.18397 10.4307 9.14758 10.4371 9.10919C10.4319 9.14769 10.4267 9.18618 10.4216 9.22469C10.4374 9.10263 10.4265 8.97379 10.4265 8.85123C10.4265 8.5746 10.4265 8.29796 10.4265 8.02133C10.4265 7.23114 10.4265 6.44097 10.4265 5.6508C10.4265 5.02479 10.4265 4.39879 10.4265 3.77278C10.4265 3.67599 10.434 3.57493 10.4216 3.47858C10.4267 3.51709 10.4319 3.55558 10.4371 3.59408C10.4307 3.55569 10.4205 3.5193 10.406 3.48319C10.4205 3.51778 10.4352 3.55237 10.4497 3.58697C10.4343 3.55218 10.4158 3.52011 10.3934 3.48934C10.416 3.51865 10.4387 3.54797 10.4613 3.57726C10.4346 3.54319 10.4049 3.51349 10.3709 3.48682C10.4002 3.50946 10.4295 3.5321 10.4588 3.55476C10.428 3.53237 10.3959 3.51385 10.3612 3.49839C10.3958 3.51299 10.4304 3.52759 10.4649 3.54218C10.4288 3.52766 10.3924 3.51747 10.3541 3.51107C10.3926 3.51624 10.431 3.52141 10.4696 3.52658C10.3822 3.51526 10.2908 3.5216 10.2029 3.5216C10.0111 3.5216 9.81922 3.5216 9.62736 3.5216C8.97936 3.5216 8.33136 3.5216 7.68337 3.5216C6.87113 3.5216 6.05889 3.5216 5.24664 3.5216C4.49593 3.5216 3.7452 3.5216 2.99449 3.5216C2.53105 3.5216 2.06761 3.5216 1.60418 3.5216C1.52756 3.5216 1.4483 3.51671 1.37212 3.52658C1.41062 3.52141 1.44911 3.51624 1.48761 3.51107C1.44922 3.51747 1.41284 3.52766 1.37672 3.54218C1.41131 3.52759 1.44591 3.51298 1.48049 3.49839C1.44571 3.51385 1.41365 3.53235 1.38288 3.55476C1.41218 3.53212 1.4415 3.50948 1.4708 3.48682C1.43672 3.51349 1.40702 3.54319 1.38037 3.57726C1.40301 3.54796 1.42565 3.51865 1.4483 3.48934C1.4259 3.52011 1.40739 3.55219 1.39194 3.58697C1.40654 3.55237 1.42115 3.51778 1.43573 3.48319C1.42121 3.5193 1.41102 3.55569 1.40461 3.59408C1.40978 3.55558 1.41495 3.51709 1.42013 3.47858C1.41719 3.50124 1.41557 3.52359 1.41514 3.54643C1.41078 3.78316 1.22082 3.98086 0.980705 3.98086C0.747191 3.98086 0.541903 3.78327 0.546271 3.54643C0.555333 3.05384 0.947378 2.6618 1.43996 2.65274C1.45846 2.6524 1.477 2.65274 1.49551 2.65274C1.63304 2.65274 1.77057 2.65274 1.9081 2.65274C2.48638 2.65274 3.06467 2.65274 3.64296 2.65274C4.43742 2.65274 5.23188 2.65274 6.02634 2.65274C6.8112 2.65274 7.59606 2.65274 8.38093 2.65274C8.93044 2.65274 9.47994 2.65274 10.0294 2.65274C10.1454 2.65274 10.2613 2.65274 10.3773 2.65274C10.5466 2.65274 10.71 2.69233 10.8574 2.77751C11.1316 2.936 11.2954 3.24348 11.2954 3.55683C11.2954 4.00545 11.2954 4.45407 11.2954 4.90269C11.2954 5.7027 11.2954 6.5027 11.2954 7.30271C11.2954 7.87807 11.2954 8.45341 11.2954 9.02876C11.2954 9.06999 11.2954 9.11122 11.2954 9.15245C11.2954 9.30587 11.2545 9.43212 11.1934 9.56969C11.0976 9.78548 10.8906 9.92062 10.6808 10.005C10.5417 10.0609 10.3786 10.0505 10.2301 10.0505C9.76268 10.0505 9.29525 10.0505 8.82783 10.0505C8.07536 10.0505 7.32291 10.0505 6.57046 10.0505C5.75874 10.0505 4.94702 10.0505 4.1353 10.0505C3.49009 10.0505 2.84487 10.0505 2.19966 10.0505C2.01005 10.0505 1.82043 10.0505 1.6308 10.0505C1.49613 10.0505 1.37529 10.0498 1.24014 10.0273C1.00731 9.98841 0.822013 9.82278 0.688604 9.63947C0.591763 9.50638 0.546284 9.31774 0.546284 9.15552C0.546284 9.11979 0.546284 9.08407 0.546284 9.04833C0.546284 8.83304 0.546284 8.61776 0.546284 8.40245C0.546284 7.64857 0.546284 6.89468 0.546284 6.1408C0.546284 5.43588 0.546284 4.73096 0.546284 4.02603C0.546284 3.86617 0.546284 3.7063 0.546284 3.54643C0.546284 3.30961 0.743901 3.112 0.980718 3.112C1.21753 3.112 1.41514 3.30961 1.41514 3.54643Z" fill="#808080"/>
<path d="M9.24115 3.08727C9.24115 3.43588 9.24115 3.78451 9.24115 4.13313C9.24115 4.89542 9.24115 5.6577 9.24115 6.41999C9.24115 7.17058 9.24115 7.92116 9.24115 8.67175C9.24115 8.98656 9.24115 9.30138 9.24115 9.61618C9.24115 9.853 9.04353 10.0506 8.80672 10.0506C8.5699 10.0506 8.37228 9.853 8.37228 9.61618C8.37228 9.26755 8.37228 8.91894 8.37228 8.57031C8.37228 7.80803 8.37228 7.04575 8.37228 6.28345C8.37228 5.53287 8.37228 4.78229 8.37228 4.03169C8.37228 3.71688 8.37228 3.40207 8.37228 3.08727C8.37228 2.85045 8.5699 2.65283 8.80672 2.65283C9.04353 2.65283 9.24115 2.85045 9.24115 3.08727Z" fill="#808080"/>
<path d="M2.5881 9.61618C2.5881 9.26755 2.5881 8.91894 2.5881 8.57031C2.5881 7.80803 2.5881 7.04575 2.5881 6.28345C2.5881 5.53287 2.5881 4.78229 2.5881 4.03169C2.5881 3.71688 2.5881 3.40207 2.5881 3.08727C2.5881 2.85045 2.78572 2.65283 3.02254 2.65283C3.25935 2.65283 3.45697 2.85045 3.45697 3.08727C3.45697 3.43588 3.45697 3.78451 3.45697 4.13313C3.45697 4.89542 3.45697 5.6577 3.45697 6.41999C3.45697 7.17058 3.45697 7.92116 3.45697 8.67175C3.45697 8.98656 3.45697 9.30138 3.45697 9.61618C3.45697 9.853 3.25935 10.0506 3.02254 10.0506C2.78572 10.0506 2.5881 9.853 2.5881 9.61618Z" fill="#808080"/>
<path d="M6.9512 1.87088C6.9512 1.73418 6.9638 1.59129 6.94622 1.45546C6.9514 1.49396 6.95656 1.53245 6.96174 1.57096C6.95533 1.53257 6.94514 1.49617 6.93063 1.46005C6.94523 1.49465 6.95983 1.52924 6.97442 1.56383C6.95897 1.52904 6.94046 1.49698 6.91806 1.46621C6.94071 1.49551 6.96335 1.52483 6.98599 1.55414C6.95934 1.52007 6.92963 1.49036 6.89556 1.4637C6.92486 1.48634 6.95418 1.50898 6.98349 1.53163C6.95272 1.50924 6.92064 1.49074 6.88586 1.47528C6.92046 1.48988 6.95505 1.50449 6.98964 1.51907C6.95353 1.50456 6.91713 1.49437 6.87874 1.48797C6.91724 1.49314 6.95573 1.49831 6.99423 1.50348C6.90999 1.49259 6.82215 1.49851 6.73747 1.49851C6.56926 1.49851 6.40105 1.49851 6.23283 1.49851C5.85927 1.49851 5.4857 1.49851 5.11213 1.49851C5.02497 1.49851 4.93442 1.49226 4.84769 1.50348C4.88619 1.49831 4.92468 1.49314 4.96318 1.48797C4.92479 1.49437 4.8884 1.50456 4.85228 1.51907C4.88687 1.50448 4.92147 1.48988 4.95605 1.47528C4.92127 1.49074 4.88921 1.50924 4.85844 1.53163C4.88774 1.50899 4.91705 1.48635 4.94635 1.4637C4.91228 1.49035 4.88258 1.52007 4.85593 1.55414C4.87857 1.52483 4.90121 1.49551 4.92386 1.46621C4.90147 1.49698 4.88296 1.52905 4.86751 1.56383C4.88212 1.52924 4.89672 1.49465 4.9113 1.46005C4.89678 1.49616 4.8866 1.53257 4.88019 1.57096C4.88536 1.53245 4.89053 1.49396 4.89571 1.45546C4.87813 1.59129 4.89073 1.73418 4.89073 1.87088C4.89073 2.10769 4.69311 2.30531 4.4563 2.30531C4.21948 2.30531 4.02187 2.10769 4.02187 1.87088C4.02187 1.67901 4.00671 1.47908 4.05236 1.29107C4.14704 0.901122 4.52865 0.629639 4.92196 0.629639C5.19934 0.629639 5.47671 0.629639 5.75409 0.629639C6.10713 0.629639 6.46018 0.629639 6.81324 0.629639C6.84763 0.629639 6.88203 0.629639 6.91643 0.629639C7.07463 0.629639 7.21304 0.67014 7.35381 0.738731C7.56403 0.841171 7.70312 1.04643 7.78008 1.25957C7.82193 1.3755 7.82006 1.50289 7.82006 1.62465C7.82006 1.70672 7.82006 1.78881 7.82006 1.87088C7.82006 2.10769 7.62244 2.30531 7.38562 2.30531C7.14881 2.30531 6.9512 2.10769 6.9512 1.87088Z" fill="#808080"/>
</svg>
