<svg width="12" height="12" viewBox="0 0 12 12" fill="none" xmlns="http://www.w3.org/2000/svg">
<path fill-rule="evenodd" clip-rule="evenodd" d="M6.028 0H10.428C10.844 0 11.244 0.166 11.54 0.46C11.834 0.756 12 1.156 12 1.572V5.972C12 5.976 12 5.98 12 5.984C11.994 6.18 11.952 6.374 11.874 6.554C11.802 6.738 11.694 6.904 11.56 7.048C11.556 7.05 11.554 7.054 11.55 7.058L7.318 11.288C6.862 11.744 6.244 12 5.6 12C4.956 12 4.336 11.744 3.882 11.288H3.88L0.712 8.12V8.118C0.256 7.664 0 7.044 0 6.4C0 5.756 0.256 5.138 0.712 4.682L4.942 0.45C5.23 0.162 5.622 0 6.028 0ZM6.028 1H10.428C10.58 1 10.724 1.06 10.832 1.168C10.94 1.276 11 1.42 11 1.572V5.964C10.998 6.036 10.98 6.106 10.948 6.172C10.924 6.24 10.886 6.302 10.838 6.356L6.612 10.582C6.344 10.85 5.98 11 5.6 11C5.22 11 4.856 10.85 4.588 10.582L1.418 7.412C1.15 7.144 1 6.78 1 6.4C1 6.02 1.15 5.656 1.418 5.388L5.65 1.156C5.75 1.056 5.886 1 6.028 1Z" fill="#808080"/>
</svg>
