<svg width="11" height="11" viewBox="0 0 11 11" fill="none" xmlns="http://www.w3.org/2000/svg">
<path fill-rule="evenodd" clip-rule="evenodd" d="M5.36492 0H9.28092C9.65116 0 10.0072 0.14774 10.2706 0.4094C10.5323 0.67284 10.68 1.02884 10.68 1.39908V5.31508C10.68 5.31864 10.68 5.3222 10.68 5.32576C10.6747 5.5002 10.6373 5.67286 10.5679 5.83306C10.5038 5.99682 10.4077 6.14456 10.2884 6.27272C10.2848 6.2745 10.2831 6.27806 10.2795 6.28162L6.51302 10.0463C6.10718 10.4522 5.55716 10.68 4.984 10.68C4.41084 10.68 3.85904 10.4522 3.45498 10.0463H3.4532L0.63368 7.2268V7.22502C0.22784 6.82096 0 6.26916 0 5.696C0 5.12284 0.22784 4.57282 0.63368 4.16698L4.39838 0.4005C4.6547 0.14418 5.00358 0 5.36492 0ZM5.36492 0.89H9.28092C9.4162 0.89 9.54436 0.9434 9.64048 1.03952C9.7366 1.13564 9.79 1.2638 9.79 1.39908V5.30796C9.78822 5.37204 9.7722 5.43434 9.74372 5.49308C9.72236 5.5536 9.68854 5.60878 9.64582 5.65684L5.88468 9.41798C5.64616 9.6565 5.3222 9.79 4.984 9.79C4.6458 9.79 4.32184 9.6565 4.08332 9.41798L1.26202 6.59668C1.0235 6.35816 0.89 6.0342 0.89 5.696C0.89 5.3578 1.0235 5.03384 1.26202 4.79532L5.0285 1.02884C5.1175 0.93984 5.23854 0.89 5.36492 0.89Z" fill="#808080"/>
<path fill-rule="evenodd" clip-rule="evenodd" d="M5.98258 4.6974C5.63726 4.35386 5.44324 3.88572 5.44324 3.398C5.44324 2.91206 5.63726 2.44392 5.98258 2.0986C6.32612 1.75506 6.79426 1.56104 7.28198 1.56104C7.76792 1.56104 8.23606 1.75506 8.58138 2.0986C8.92492 2.44392 9.11894 2.91206 9.11894 3.398C9.11894 3.88572 8.92492 4.35386 8.58138 4.6974C8.23606 5.04272 7.76792 5.23674 7.28198 5.23674C6.79426 5.23674 6.32612 5.04272 5.98258 4.6974ZM6.61092 4.06906C6.4347 3.89106 6.33324 3.65076 6.33324 3.398C6.33324 3.14702 6.4347 2.90672 6.61092 2.72872C6.78892 2.55072 7.031 2.45104 7.28198 2.45104C7.53296 2.45104 7.77326 2.55072 7.95126 2.72872C8.12926 2.90672 8.22894 3.14702 8.22894 3.398C8.22894 3.64898 8.12926 3.89106 7.95126 4.06906C7.77326 4.24528 7.53296 4.34674 7.28198 4.34674C7.031 4.34674 6.78892 4.24528 6.61092 4.06906Z" fill="#808080"/>
</svg>
