<svg width="11" height="13" viewBox="0 0 11 13" fill="none" xmlns="http://www.w3.org/2000/svg">
<path d="M5.30048 11.8489L5.33907 11.8958L5.37767 11.8489C5.51847 11.678 5.66469 11.5016 5.81447 11.321C6.56301 10.4181 7.40007 9.40846 8.09014 8.43802C8.50431 7.85559 8.86656 7.28587 9.12545 6.76046C9.38387 6.23597 9.54169 5.75092 9.54169 5.33907C9.54169 4.22447 9.09891 3.15552 8.31077 2.36738C7.52263 1.57923 6.45368 1.13646 5.33907 1.13646C4.22447 1.13646 3.15552 1.57923 2.36738 2.36738C1.57923 3.15552 1.13646 4.22447 1.13646 5.33907C1.13646 5.75092 1.29428 6.23597 1.5527 6.76046C1.81158 7.28587 2.17384 7.85559 2.588 8.43802C3.27808 9.40845 4.11513 10.4181 4.86367 11.321C5.01345 11.5016 5.15968 11.678 5.30048 11.8489ZM1.59913 1.59913C2.59103 0.60724 3.93632 0.05 5.33907 0.05C6.74182 0.05 8.08712 0.60724 9.07901 1.59913C10.0709 2.59103 10.6281 3.93632 10.6281 5.33907C10.6281 5.87153 10.4501 6.47159 10.1557 7.10359C9.86166 7.73506 9.45319 8.39496 8.9962 9.04622C8.27443 10.0748 7.43436 11.0781 6.73689 11.9112C6.55083 12.1334 6.37491 12.3435 6.2141 12.5387C6.10747 12.6674 5.97378 12.7709 5.82254 12.842C5.67129 12.9131 5.50621 12.95 5.33907 12.95C5.17194 12.95 5.00686 12.9131 4.85561 12.842C4.70437 12.7709 4.57068 12.6674 4.46405 12.5387C4.30324 12.3435 4.12732 12.1334 3.94125 11.9112C3.24379 11.0781 2.40372 10.0748 1.68195 9.04622C1.22496 8.39496 0.816489 7.73506 0.522413 7.10359C0.228088 6.47159 0.05 5.87153 0.05 5.33907C0.05 3.93632 0.60724 2.59103 1.59913 1.59913Z" fill="#808080" stroke="white" stroke-width="0.1"/>
<path d="M4.37811 3.90089C4.66256 3.71083 4.99698 3.60939 5.33908 3.60939C5.79782 3.60939 6.23778 3.79162 6.56216 4.116C6.88654 4.44038 7.06877 4.88034 7.06877 5.33908C7.06877 5.68118 6.96733 6.0156 6.77727 6.30004C6.5872 6.58449 6.31706 6.80619 6.001 6.93711C5.68494 7.06802 5.33716 7.10228 5.00163 7.03553C4.66611 6.96879 4.3579 6.80406 4.116 6.56216C3.8741 6.32025 3.70936 6.01205 3.64262 5.67652C3.57588 5.341 3.61014 4.99321 3.74105 4.67715C3.87197 4.36109 4.09367 4.09095 4.37811 3.90089ZM4.98172 5.87391C5.0875 5.94458 5.21186 5.98231 5.33908 5.98231C5.50968 5.98231 5.67328 5.91454 5.79391 5.79391C5.91454 5.67328 5.98231 5.50967 5.98231 5.33908C5.98231 5.21186 5.94459 5.0875 5.87391 4.98172C5.80323 4.87594 5.70277 4.7935 5.58523 4.74481C5.4677 4.69613 5.33837 4.68339 5.21359 4.70821C5.08882 4.73303 4.9742 4.79429 4.88425 4.88425C4.79429 4.9742 4.73303 5.08882 4.70821 5.21359C4.68339 5.33837 4.69613 5.4677 4.74481 5.58523C4.7935 5.70277 4.87594 5.80323 4.98172 5.87391Z" fill="#808080" stroke="white" stroke-width="0.1"/>
</svg>
