<svg width="231" height="55" viewBox="0 0 231 55" fill="none" xmlns="http://www.w3.org/2000/svg">
<rect x="190" width="41" height="16" fill="#1E2432"/>
<path d="M199.519 12L198.892 10.273H195.427L194.8 12H193.711L196.582 4.3H197.737L200.608 12H199.519ZM195.779 9.316H198.54L197.154 5.521L195.779 9.316ZM202.539 11.032H205.861V12H201.516V4.3H202.539V11.032ZM209.681 4.3C210.392 4.3 210.983 4.53833 211.452 5.015C211.929 5.48433 212.167 6.071 212.167 6.775C212.167 7.47167 211.929 8.05833 211.452 8.535C210.983 9.01167 210.392 9.25 209.681 9.25H207.91V12H206.887V4.3H209.681ZM209.681 8.293C210.106 8.293 210.458 8.15 210.737 7.864C211.016 7.57067 211.155 7.20767 211.155 6.775C211.155 6.335 211.016 5.972 210.737 5.686C210.458 5.4 210.106 5.257 209.681 5.257H207.91V8.293H209.681ZM218.138 4.3H219.15V12H218.138V8.535H214.398V12H213.375V4.3H214.398V7.567H218.138V4.3ZM225.869 12L225.242 10.273H221.777L221.15 12H220.061L222.932 4.3H224.087L226.958 12H225.869ZM222.129 9.316H224.89L223.504 5.521L222.129 9.316Z" fill="white"/>
<path d="M47.5086 17.293C47.5086 19.6228 45.6205 21.5114 43.2914 21.5114C40.9623 21.5114 39.0742 19.6228 39.0742 17.293C39.0742 14.9632 40.9623 13.0746 43.2914 13.0746C45.6205 13.0746 47.5086 14.9632 47.5086 17.293Z" fill="#01BCFF"/>
<path d="M26.8223 13.0745C26.8223 16.4294 24.1035 19.1491 20.7495 19.1491C17.3956 19.1491 14.6768 16.4294 14.6768 13.0745C14.6768 9.71966 17.3956 7 20.7495 7C24.1035 7 26.8223 9.71966 26.8223 13.0745Z" fill="#2D66FE"/>
<path fill-rule="evenodd" clip-rule="evenodd" d="M43.7356 33.1931C40.5395 33.1931 38.3394 34.111 36.7842 35.3211L32.8379 30.2492C35.5877 28.1097 39.1964 26.7667 43.7356 26.7667C49.8882 26.7667 54.3451 28.6957 57.2557 31.7242C60.1098 34.6938 61.1732 38.408 61.1732 41.4699C61.1732 43.2445 59.7346 44.6831 57.96 44.6831C56.1854 44.6831 54.7468 43.2445 54.7468 41.4699C54.7468 39.8006 54.153 37.7698 52.6224 36.1772C51.1483 34.6434 48.493 33.193 43.7356 33.1931Z" fill="#01BCFF"/>
<path fill-rule="evenodd" clip-rule="evenodd" d="M9.32852 34.0413C7.21861 36.3643 6.42633 39.2737 6.42633 41.47C6.42633 43.2446 4.98775 44.6832 3.21316 44.6832C1.43858 44.6832 0 43.2446 0 41.47C0 37.9213 1.23317 33.3961 4.57147 29.7206C7.98874 25.9582 13.337 23.3875 20.9551 23.3875C28.4082 23.3874 33.6757 25.9205 37.0503 29.6671C40.3468 33.327 41.5722 37.8514 41.5722 41.47C41.5722 43.2446 40.1336 44.6832 38.3591 44.6832C36.5845 44.6832 35.1459 43.2446 35.1459 41.47C35.1459 39.1746 34.3437 36.2643 32.2753 33.968C30.2851 31.7584 26.8506 29.8138 20.9551 29.8138C14.8821 29.8138 11.3595 31.8052 9.32852 34.0413Z" fill="#2D66FE"/>
<path d="M141.673 49.0811C142.289 49.0811 142.8 49.2938 143.207 49.7194C143.618 50.1449 143.823 50.6695 143.823 51.2931C143.823 51.9124 143.618 52.437 143.207 52.8667C142.8 53.2923 142.289 53.5051 141.673 53.5051H139.907V49.0811H141.673ZM141.673 52.8099C142.096 52.8099 142.441 52.6666 142.706 52.3801C142.976 52.0936 143.11 51.7313 143.11 51.2931C143.11 50.8507 142.976 50.4883 142.706 50.206C142.441 49.9195 142.096 49.7763 141.673 49.7763H140.645V52.8099H141.673Z" fill="#696969"/>
<path d="M144.997 52.2158C145.048 52.4559 145.166 52.6413 145.35 52.7719C145.534 52.8983 145.758 52.9615 146.024 52.9615C146.392 52.9615 146.668 52.8309 146.852 52.5697L147.423 52.8983C147.107 53.3576 146.638 53.5872 146.017 53.5872C145.495 53.5872 145.074 53.4313 144.753 53.1195C144.432 52.8035 144.271 52.4054 144.271 51.9251C144.271 51.4532 144.43 51.0592 144.746 50.7432C145.063 50.423 145.47 50.2629 145.966 50.2629C146.437 50.2629 146.822 50.4251 147.122 50.7495C147.425 51.074 147.577 51.4679 147.577 51.9314C147.577 52.003 147.569 52.0978 147.552 52.2158H144.997ZM144.99 51.6596H146.878C146.831 51.4026 146.721 51.2088 146.55 51.0782C146.383 50.9476 146.186 50.8823 145.96 50.8823C145.703 50.8823 145.489 50.9518 145.318 51.0908C145.147 51.2299 145.037 51.4195 144.99 51.6596Z" fill="#696969"/>
<path d="M148.685 51.2172C148.685 51.3226 148.742 51.4068 148.858 51.47C148.978 51.529 149.121 51.5817 149.288 51.628C149.459 51.6702 149.63 51.7207 149.802 51.7797C149.973 51.8387 150.116 51.9398 150.232 52.0831C150.352 52.2221 150.411 52.3991 150.411 52.6139C150.411 52.9173 150.292 53.1554 150.052 53.3281C149.817 53.5009 149.519 53.5872 149.16 53.5872C148.843 53.5872 148.571 53.5219 148.344 53.3913C148.118 53.2607 147.953 53.0795 147.85 52.8478L148.447 52.5065C148.558 52.8099 148.796 52.9615 149.16 52.9615C149.523 52.9615 149.705 52.8436 149.705 52.6076C149.705 52.5065 149.645 52.4243 149.526 52.3611C149.41 52.2979 149.267 52.2453 149.095 52.2031C148.929 52.1568 148.76 52.1041 148.588 52.0451C148.417 51.9862 148.272 51.8893 148.152 51.7544C148.036 51.6154 147.979 51.4405 147.979 51.2299C147.979 50.9391 148.09 50.7053 148.312 50.5283C148.539 50.3514 148.819 50.2629 149.153 50.2629C149.419 50.2629 149.654 50.3219 149.859 50.4399C150.069 50.5536 150.23 50.7137 150.341 50.9202L149.757 51.2425C149.645 51.0023 149.444 50.8823 149.153 50.8823C149.021 50.8823 148.909 50.9118 148.819 50.9707C148.73 51.0255 148.685 51.1077 148.685 51.2172Z" fill="#696969"/>
<path d="M151.638 49.7447C151.552 49.8289 151.45 49.8711 151.33 49.8711C151.21 49.8711 151.105 49.8289 151.015 49.7447C150.93 49.6562 150.887 49.553 150.887 49.435C150.887 49.317 150.93 49.2159 151.015 49.1316C151.101 49.0431 151.206 48.9989 151.33 48.9989C151.454 48.9989 151.559 49.0431 151.644 49.1316C151.73 49.2159 151.773 49.317 151.773 49.435C151.773 49.553 151.728 49.6562 151.638 49.7447ZM150.983 53.5051V50.3451H151.677V53.5051H150.983Z" fill="#696969"/>
<path d="M155.036 50.3451H155.717V53.3597C155.717 53.84 155.556 54.2087 155.235 54.4657C154.914 54.7227 154.525 54.8512 154.067 54.8512C153.327 54.8512 152.82 54.5963 152.546 54.0865L153.143 53.7452C153.31 54.0697 153.622 54.2319 154.08 54.2319C154.379 54.2319 154.613 54.1539 154.78 53.998C154.951 53.8463 155.036 53.6336 155.036 53.3597V52.9742C154.775 53.3407 154.403 53.524 153.919 53.524C153.466 53.524 153.083 53.366 152.77 53.05C152.458 52.7298 152.302 52.3443 152.302 51.8935C152.302 51.4426 152.458 51.0592 152.77 50.7432C153.083 50.423 153.466 50.2629 153.919 50.2629C154.403 50.2629 154.775 50.4462 155.036 50.8127V50.3451ZM153.284 52.6013C153.481 52.7909 153.725 52.8857 154.016 52.8857C154.307 52.8857 154.549 52.7909 154.741 52.6013C154.938 52.4117 155.036 52.1758 155.036 51.8935C155.036 51.6112 154.938 51.3752 154.741 51.1856C154.549 50.996 154.307 50.9012 154.016 50.9012C153.725 50.9012 153.481 50.996 153.284 51.1856C153.091 51.3752 152.995 51.6112 152.995 51.8935C152.995 52.1758 153.091 52.4117 153.284 52.6013Z" fill="#696969"/>
<path d="M158.213 50.2629C158.581 50.2629 158.879 50.3788 159.105 50.6105C159.332 50.8422 159.446 51.1603 159.446 51.5648V53.5051H158.752V51.6343C158.752 51.3984 158.688 51.2172 158.56 51.0908C158.431 50.9644 158.256 50.9012 158.033 50.9012C157.79 50.9012 157.593 50.9771 157.443 51.1287C157.293 51.2762 157.218 51.5037 157.218 51.8113V53.5051H156.525V50.3451H157.218V50.7495C157.428 50.4251 157.76 50.2629 158.213 50.2629Z" fill="#696969"/>
<path d="M163.338 53.5872C162.905 53.5872 162.537 53.4903 162.234 53.2965C161.934 53.1027 161.724 52.8373 161.604 52.5002L162.24 52.1336C162.42 52.6308 162.792 52.8794 163.357 52.8794C163.635 52.8794 163.843 52.8267 163.98 52.7214C164.121 52.6118 164.191 52.4707 164.191 52.2979C164.191 52.1168 164.117 51.9798 163.967 51.8871C163.817 51.7902 163.552 51.6849 163.171 51.5711C162.957 51.5079 162.783 51.449 162.651 51.3942C162.518 51.3394 162.377 51.2636 162.227 51.1667C162.082 51.0655 161.972 50.9413 161.9 50.7938C161.827 50.6463 161.791 50.4736 161.791 50.2755C161.791 49.8837 161.932 49.574 162.214 49.3465C162.497 49.1148 162.837 48.9989 163.235 48.9989C163.594 48.9989 163.909 49.0853 164.179 49.258C164.448 49.4308 164.656 49.6688 164.801 49.9722L164.179 50.3261C163.99 49.9132 163.676 49.7067 163.235 49.7067C163.021 49.7067 162.85 49.7573 162.721 49.8584C162.593 49.9553 162.529 50.088 162.529 50.2566C162.529 50.4209 162.593 50.5515 162.721 50.6484C162.854 50.7411 163.092 50.8401 163.434 50.9455C163.605 51.0002 163.729 51.0424 163.806 51.0719C163.888 51.0971 163.999 51.1393 164.14 51.1983C164.286 51.2573 164.395 51.3162 164.467 51.3752C164.54 51.4342 164.617 51.5079 164.699 51.5964C164.784 51.6849 164.844 51.786 164.878 51.8998C164.913 52.0135 164.93 52.1421 164.93 52.2853C164.93 52.6856 164.782 53.0037 164.487 53.2396C164.196 53.4714 163.813 53.5872 163.338 53.5872Z" fill="#696969"/>
<path d="M167.69 50.3451H168.384V53.5051H167.69V53.1006C167.481 53.425 167.149 53.5872 166.695 53.5872C166.327 53.5872 166.03 53.4714 165.803 53.2396C165.576 53.0079 165.463 52.6898 165.463 52.2853V50.3451H166.156V52.2158C166.156 52.4517 166.22 52.6329 166.349 52.7593C166.477 52.8857 166.653 52.9489 166.875 52.9489C167.119 52.9489 167.316 52.8752 167.466 52.7277C167.615 52.576 167.69 52.3464 167.69 52.0388V50.3451Z" fill="#696969"/>
<path d="M170.883 50.2629C171.251 50.2629 171.548 50.3788 171.775 50.6105C172.002 50.8422 172.115 51.1603 172.115 51.5648V53.5051H171.422V51.6343C171.422 51.3984 171.358 51.2172 171.229 51.0908C171.101 50.9644 170.925 50.9012 170.703 50.9012C170.459 50.9012 170.262 50.9771 170.112 51.1287C169.962 51.2762 169.888 51.5037 169.888 51.8113V53.5051H169.194V50.3451H169.888V50.7495C170.097 50.4251 170.429 50.2629 170.883 50.2629Z" fill="#696969"/>
<path d="M175.404 49.0811H176.097V53.5051H175.404V53.05C175.143 53.4082 174.768 53.5872 174.28 53.5872C173.839 53.5872 173.463 53.4271 173.15 53.1069C172.838 52.7825 172.682 52.3885 172.682 51.9251C172.682 51.4574 172.838 51.0634 173.15 50.7432C173.463 50.423 173.839 50.2629 174.28 50.2629C174.768 50.2629 175.143 50.4399 175.404 50.7938V49.0811ZM173.664 52.6519C173.857 52.8415 174.098 52.9363 174.389 52.9363C174.68 52.9363 174.922 52.8415 175.115 52.6519C175.307 52.4581 175.404 52.2158 175.404 51.9251C175.404 51.6343 175.307 51.3942 175.115 51.2046C174.922 51.0108 174.68 50.9139 174.389 50.9139C174.098 50.9139 173.857 51.0108 173.664 51.2046C173.471 51.3942 173.375 51.6343 173.375 51.9251C173.375 52.2158 173.471 52.4581 173.664 52.6519Z" fill="#696969"/>
<path d="M179.447 50.3451H180.14V53.5051H179.447V53.05C179.186 53.4082 178.812 53.5872 178.324 53.5872C177.883 53.5872 177.506 53.4271 177.194 53.1069C176.881 52.7825 176.725 52.3885 176.725 51.9251C176.725 51.4574 176.881 51.0634 177.194 50.7432C177.506 50.423 177.883 50.2629 178.324 50.2629C178.812 50.2629 179.186 50.4399 179.447 50.7938V50.3451ZM177.707 52.6519C177.9 52.8415 178.142 52.9363 178.433 52.9363C178.724 52.9363 178.966 52.8415 179.158 52.6519C179.351 52.4581 179.447 52.2158 179.447 51.9251C179.447 51.6343 179.351 51.3942 179.158 51.2046C178.966 51.0108 178.724 50.9139 178.433 50.9139C178.142 50.9139 177.9 51.0108 177.707 51.2046C177.515 51.3942 177.419 51.6343 177.419 51.9251C177.419 52.2158 177.515 52.4581 177.707 52.6519Z" fill="#696969"/>
<path d="M183.112 50.3451H183.85L182.617 53.6062C182.309 54.4236 181.787 54.8112 181.051 54.7691V54.1307C181.269 54.1434 181.445 54.097 181.577 53.9917C181.71 53.8906 181.819 53.7305 181.905 53.5114L181.937 53.4482L180.576 50.3451H181.334L182.29 52.6392L183.112 50.3451Z" fill="#696969"/>
<path d="M184.712 51.2172C184.712 51.3226 184.77 51.4068 184.885 51.47C185.005 51.529 185.148 51.5817 185.315 51.628C185.486 51.6702 185.658 51.7207 185.829 51.7797C186 51.8387 186.143 51.9398 186.259 52.0831C186.379 52.2221 186.439 52.3991 186.439 52.6139C186.439 52.9173 186.319 53.1554 186.079 53.3281C185.844 53.5009 185.546 53.5872 185.187 53.5872C184.87 53.5872 184.598 53.5219 184.372 53.3913C184.145 53.2607 183.98 53.0795 183.877 52.8478L184.474 52.5065C184.586 52.8099 184.823 52.9615 185.187 52.9615C185.551 52.9615 185.732 52.8436 185.732 52.6076C185.732 52.5065 185.673 52.4243 185.553 52.3611C185.437 52.2979 185.294 52.2453 185.123 52.2031C184.956 52.1568 184.787 52.1041 184.615 52.0451C184.444 51.9862 184.299 51.8893 184.179 51.7544C184.063 51.6154 184.006 51.4405 184.006 51.2299C184.006 50.9391 184.117 50.7053 184.339 50.5283C184.566 50.3514 184.847 50.2629 185.18 50.2629C185.446 50.2629 185.681 50.3219 185.886 50.4399C186.096 50.5536 186.257 50.7137 186.368 50.9202L185.784 51.2425C185.673 51.0023 185.471 50.8823 185.18 50.8823C185.048 50.8823 184.936 50.9118 184.847 50.9707C184.757 51.0255 184.712 51.1077 184.712 51.2172Z" fill="#696969"/>
<path d="M131.706 49.6351C132.233 49.6351 132.681 49.8281 133.052 50.2141C133.423 50.595 133.609 51.0612 133.609 51.6126C133.609 52.1641 133.423 52.6328 133.052 53.0187C132.681 53.3997 132.233 53.5902 131.706 53.5902C131.085 53.5902 130.611 53.3421 130.285 52.8458V53.4924H129.631V48.229H130.285V50.3795C130.611 49.8832 131.085 49.6351 131.706 49.6351ZM131.623 52.9586C131.999 52.9586 132.315 52.8308 132.571 52.5751C132.827 52.3144 132.954 51.9936 132.954 51.6126C132.954 51.2317 132.827 50.9134 132.571 50.6577C132.315 50.397 131.999 50.2667 131.623 50.2667C131.242 50.2667 130.924 50.397 130.669 50.6577C130.413 50.9134 130.285 51.2317 130.285 51.6126C130.285 51.9936 130.413 52.3144 130.669 52.5751C130.924 52.8308 131.242 52.9586 131.623 52.9586Z" fill="#696969"/>
<path d="M136.866 49.7328H137.566L136.032 53.7255C135.871 54.1516 135.646 54.475 135.355 54.6955C135.069 54.9211 134.739 55.0214 134.363 54.9963V54.3872C134.824 54.4223 135.162 54.1667 135.378 53.6203L135.445 53.4774L133.806 49.7328H134.505L135.784 52.6804L136.866 49.7328Z" fill="#696969"/>
<path d="M68.6123 32.4348C68.6123 29.2192 69.6663 26.9504 71.7744 25.6284C73.9181 24.2707 76.0083 23.5918 78.0449 23.5918C79.7241 23.5918 81.0997 23.8419 82.1716 24.3421C83.2792 24.8423 84.2261 25.3604 85.0121 25.8963C85.691 25.1818 86.6021 24.6279 87.7454 24.2349C88.9245 23.8419 90.1393 23.6454 91.3898 23.6454C94.1052 23.6454 96.4634 24.3957 98.4642 25.8963C100.465 27.397 101.465 29.5765 101.465 32.4348V44.2255H95.8381V32.4348C95.8381 31.3272 95.4272 30.4697 94.6054 29.8623C93.8194 29.2192 92.8904 28.8976 91.8186 28.8976C90.7109 28.8976 89.7641 29.2013 88.9781 29.8087C88.2277 30.4161 87.8526 31.2915 87.8526 32.4348V44.2255H82.2252V32.4348C82.2252 31.3272 81.8322 30.4697 81.0461 29.8623C80.2958 29.2549 79.3669 28.9512 78.2592 28.9512C77.1516 28.9512 76.2048 29.2549 75.4188 29.8623C74.6327 30.4697 74.2397 31.3272 74.2397 32.4348V44.2255H68.6123V32.4348Z" fill="#1E2432"/>
<path d="M109.722 37.8478C110.758 38.9197 112.063 39.4556 113.635 39.4556C115.243 39.4556 116.511 38.9554 117.44 37.955C118.405 36.9189 118.887 35.6683 118.887 34.2034C118.887 32.7385 118.405 31.5059 117.44 30.5054C116.511 29.4693 115.243 28.9512 113.635 28.9512C112.063 28.9512 110.776 29.4871 109.776 30.559C108.811 31.5952 108.329 32.81 108.329 34.2034C108.329 35.5969 108.793 36.8117 109.722 37.8478ZM118.887 23.699H124.407V44.4399H118.887V43.5824C117.315 44.4756 115.6 44.9222 113.742 44.9222C112.206 44.9222 110.776 44.6543 109.454 44.1183C108.132 43.5467 106.703 42.4391 105.167 40.7955C103.63 39.1519 102.862 36.9367 102.862 34.1498C102.862 31.3629 103.613 29.1656 105.113 27.5578C106.614 25.9142 108.079 24.8066 109.508 24.2349C110.937 23.6633 112.384 23.3774 113.849 23.3774C114.778 23.3774 115.671 23.5025 116.529 23.7526C117.422 24.0027 118.208 24.3421 118.887 24.7709V23.699Z" fill="#1E2432"/>
<path d="M160.45 36.6152H166.453C166.06 38.4016 165.024 40.2417 163.345 42.1354C161.665 43.9933 159.236 44.9222 156.056 44.9222C152.876 44.9222 150.268 43.8325 148.231 41.653C146.194 39.4378 145.176 36.9367 145.176 34.1498C145.176 31.3629 146.194 28.8797 148.231 26.7003C150.268 24.5208 152.858 23.431 156.002 23.431C157.538 23.431 158.968 23.7168 160.29 24.2885C161.647 24.8245 162.755 25.5748 163.612 26.5395C164.47 27.4684 165.095 28.3081 165.488 29.0584C165.917 29.773 166.239 30.6126 166.453 31.5773H160.45L159.807 30.559C159.379 30.0231 158.825 29.6122 158.146 29.3264C157.467 29.0405 156.77 28.8976 156.056 28.8976C154.412 28.8976 153.09 29.4336 152.09 30.5054C151.125 31.5773 150.643 32.81 150.643 34.2034C150.643 35.5969 151 36.6866 151.715 37.4727C152.429 38.2587 153.144 38.8125 153.858 39.1341C154.573 39.4199 155.341 39.5628 156.163 39.5628C156.949 39.5628 157.646 39.4378 158.253 39.1877C158.86 38.9018 159.361 38.491 159.754 37.955C160.147 37.4191 160.379 36.9725 160.45 36.6152Z" fill="#1E2432"/>
<path d="M174.388 13.0829L174.442 24.3421C175.442 23.8776 176.693 23.6454 178.193 23.6454C180.766 23.6454 183.053 24.36 185.053 25.7892C187.054 27.1826 188.055 29.3978 188.055 32.4348V44.2255H182.427V32.4348C182.427 31.3272 182.034 30.4697 181.248 29.8623C180.498 29.2549 179.551 28.9512 178.408 28.9512C177.336 28.9512 176.389 29.2549 175.567 29.8623C174.781 30.4697 174.388 31.3272 174.388 32.4348V44.2255H168.761V13.0829H174.388Z" fill="#1E2432"/>
<path d="M142.415 26.458H136.98V36.4635C136.98 37.2973 137.188 37.9066 137.605 38.2915C138.022 38.6763 138.631 38.9008 139.433 38.9649C140.235 38.997 141.229 38.9809 142.415 38.9168V44.5449C138.15 45.0259 135.136 44.6251 133.372 43.3423C131.64 42.0596 130.774 39.7666 130.774 36.4635V26.458H126.589V20.4932H130.774V13.0829H136.98V20.4932H142.415V26.458Z" fill="#1E2432"/>
<path fill-rule="evenodd" clip-rule="evenodd" d="M139.433 38.9649C138.631 38.9008 138.022 38.6763 137.605 38.2915C137.188 37.9066 136.98 37.2973 136.98 36.4635V26.458H142.415V20.4932H136.98V13.0829H130.774V20.4932H126.589V26.458H130.774V36.4635C130.774 39.7666 131.64 42.0596 133.372 43.3423C135.136 44.6251 138.15 45.0259 142.415 44.5449V38.9168C142.37 38.9193 142.325 38.9216 142.28 38.924C141.153 38.9821 140.204 38.9958 139.433 38.9649ZM142.28 39.0594C141.154 39.1174 140.202 39.1311 139.428 39.1001L139.422 39.0999C138.603 39.0343 137.96 38.8033 137.513 38.3909C137.058 37.9704 136.844 37.3172 136.844 36.4635V26.3228H142.28V20.6285H136.844V13.2182H130.91V20.6285H126.725V26.3228H130.91V36.4635C130.91 39.747 131.77 41.9873 133.452 43.2333C135.156 44.4721 138.085 44.8831 142.28 44.4238V39.0594Z" fill="white"/>
</svg>
