<svg width="577" height="348" viewBox="0 0 577 348" fill="none" xmlns="http://www.w3.org/2000/svg">
<path d="M561.597 157.68C477.505 170.885 414.232 242.722 411.733 327.836C411.456 337.254 404.041 344.904 394.637 345.497L356.273 347.925C345.634 348.596 336.717 340.048 336.862 329.383C337.233 302.192 341.954 275.489 350.965 249.768C361.76 218.952 378.212 190.858 399.874 166.262C421.536 141.665 447.326 121.798 476.524 107.207C500.901 95.0286 526.78 86.974 553.7 83.1823C564.257 81.6966 573.86 89.4685 574.536 100.112L576.963 138.489C577.556 147.896 570.901 156.222 561.597 157.68Z" fill="#F7F9FB"/>
</svg>
