<svg width="275" height="250" viewBox="0 0 275 250" fill="none" xmlns="http://www.w3.org/2000/svg">
<path d="M27.4965 191.573C27.4965 191.573 56.4592 228.248 105.956 229.738C155.452 231.229 199.717 200.353 236.234 176.329C272.751 152.304 284.734 112.053 266.501 78.8547C248.268 45.6562 215.184 57.0306 175.478 33.7014C135.771 10.3721 128.654 -1.86227 82.5621 0.230554C36.4699 2.32337 -1.62378 51.5477 0.0533446 106.692C1.73047 161.836 27.4965 191.573 27.4965 191.573Z" fill="#F7F9FB"/>
<path d="M27.4965 191.573C27.4965 191.573 56.4592 228.248 105.956 229.738C155.452 231.229 199.717 200.353 236.234 176.329C272.751 152.304 284.734 112.053 266.501 78.8547C248.268 45.6562 215.184 57.0306 175.478 33.7014C135.771 10.3721 128.654 -1.86227 82.5621 0.230554C36.4699 2.32337 -1.62378 51.5477 0.0533446 106.692C1.73047 161.836 27.4965 191.573 27.4965 191.573Z" fill="#F7F9FB"/>
<path d="M90.8689 250.001C119.464 250.001 142.645 247.183 142.645 243.708C142.645 240.232 119.464 237.415 90.8689 237.415C62.2739 237.415 39.0931 240.232 39.0931 243.708C39.0931 247.183 62.2739 250.001 90.8689 250.001Z" fill="#2D66FE"/>
<path d="M90.8689 250.001C119.464 250.001 142.645 247.183 142.645 243.708C142.645 240.232 119.464 237.415 90.8689 237.415C62.2739 237.415 39.0931 240.232 39.0931 243.708C39.0931 247.183 62.2739 250.001 90.8689 250.001Z" fill="#F7F9FB"/>
<path d="M198.011 243.686C198.011 245.421 186.451 246.825 172.209 246.825C157.968 246.825 146.408 245.392 146.408 243.686C146.408 241.98 157.961 240.554 172.209 240.554C186.458 240.554 198.011 241.98 198.011 243.686Z" fill="#2D66FE"/>
<path d="M198.011 243.686C198.011 245.421 186.451 246.825 172.209 246.825C157.968 246.825 146.408 245.392 146.408 243.686C146.408 241.98 157.961 240.554 172.209 240.554C186.458 240.554 198.011 241.98 198.011 243.686Z" fill="#F7F9FB"/>
<path d="M101.197 36.4037C101.197 36.4037 97.1903 33.2573 92.5962 34.8269C88.002 36.3965 84.5187 44.0511 83.2788 50.2722C82.0389 56.4934 77.2727 61.2094 78.4195 68.5056C79.5662 75.8018 87.8587 76.9414 97.8712 78.0165C107.884 79.0915 113.317 77.8731 118.033 71.2936C122.749 64.7141 120.749 56.7084 117.961 49.6272C115.173 42.546 110.528 35.9737 106.665 34.7553C102.802 33.5368 101.197 36.4037 101.197 36.4037Z" fill="#263238" stroke="#263238" stroke-linecap="round" stroke-linejoin="round"/>
<path d="M84.6406 73.8237C85.3166 74.1277 86.0197 74.3677 86.7406 74.5405" stroke="white" stroke-linecap="round" stroke-linejoin="round"/>
<path d="M100.193 41.5C98.5604 45.1484 96.4907 48.5851 94.0296 51.7348C89.93 57.0026 80.8635 61.9767 80.283 67.5026C80.1897 68.2424 80.2545 68.9936 80.4732 69.7065C80.6919 70.4194 81.0594 71.0778 81.5516 71.6381" stroke="white" stroke-linecap="round" stroke-linejoin="round"/>
<path d="M116.828 67.9253C116.532 68.619 116.152 69.2737 115.696 69.8748" stroke="white" stroke-linecap="round" stroke-linejoin="round"/>
<path d="M113.381 54.0781C113.381 54.0781 117.99 59.3962 117.545 65.0726" stroke="white" stroke-linecap="round" stroke-linejoin="round"/>
<path d="M99.319 38.5679C97.5228 38.385 95.709 38.6352 94.0293 39.2973C92.3497 39.9594 90.8531 41.0143 89.6648 42.3736C89.5 42.56 89.3495 42.7463 89.2061 42.9327" stroke="white" stroke-linecap="round" stroke-linejoin="round"/>
<path d="M72.8792 173.663L71.9833 187.452C71.9833 187.452 68.1704 205.951 66.9663 213.577C65.7622 221.203 63.5547 232.799 63.1533 232.799C62.752 232.799 56.1725 236.777 54.0653 240.024C51.9582 243.271 54.6315 244.647 57.5558 243.607C60.48 242.568 64.4506 239.63 65.7479 236.139C67.0451 232.649 67.6902 231.351 67.7762 230.785C67.8622 230.219 81.7307 192.985 83.1068 189.008C84.4829 185.03 87.4071 173.347 87.4071 173.347L94.2231 150.226C94.2231 150.226 101.519 174 101.605 175.053C101.691 176.107 109.145 236.87 109.489 239.142C109.833 241.414 109.733 243.034 111.109 243.521C112.485 244.009 115.732 244.009 117.438 244.009C119.143 244.009 125.064 244.905 127.981 244.174C130.898 243.443 131.227 242.955 129.199 241.493C127.171 240.031 115.904 239.099 114.865 234.842C114.779 234.519 114.7 171.971 114.7 171.971C114.7 171.971 113.725 151.287 112.105 145.453H74.6209L72.8792 173.663Z" fill="white" stroke="#263238" stroke-linecap="round" stroke-linejoin="round"/>
<path d="M57.5486 243.593C60.4657 242.533 64.4435 239.615 65.7407 236.125L66.0131 235.408C64.3575 237.171 61.7128 239.623 61.7128 239.623C61.5507 238.791 61.1891 238.012 60.6592 237.351C60.428 237.096 60.1318 236.908 59.8023 236.808C59.4728 236.709 59.1224 236.7 58.7886 236.784L61.6554 233.631C59.5053 234.964 55.635 237.687 54.1155 240.031C51.9439 243.264 54.6101 244.647 57.5486 243.593Z" fill="#263238" stroke="#263238" stroke-linecap="round" stroke-linejoin="round"/>
<path d="M129.149 241.479C127.758 240.482 122.046 239.73 118.233 237.988C118.076 238.122 117.953 238.292 117.875 238.483C117.633 239.17 117.444 239.874 117.309 240.59L109.425 238.906V239.128C109.747 241.4 109.668 243.02 111.045 243.507C112.421 243.994 115.667 243.994 117.373 243.994C119.079 243.994 124.999 244.89 127.916 244.159C130.833 243.428 131.206 242.97 129.149 241.479Z" fill="#263238" stroke="#263238" stroke-linecap="round" stroke-linejoin="round"/>
<path d="M83.802 111.81C83.802 111.81 80.0823 113.523 75.5813 121.607C70.6574 130.43 71.5031 135.332 71.4315 145.976C71.3598 156.619 71.1448 174.286 71.1448 174.286C71.1448 174.286 84.7624 177.934 94.5313 177.361C104.3 176.787 116.692 174.573 116.692 174.573C116.692 174.573 114.048 138.536 111.546 128.172C109.045 117.809 107.54 113.121 107.54 113.121C102.705 113.792 97.8066 113.864 92.9545 113.336C84.6621 112.526 83.802 111.81 83.802 111.81Z" fill="#263238" stroke="#263238" stroke-linecap="round" stroke-linejoin="round"/>
<path d="M99.4695 143.682C99.8422 144.908 100.186 146.148 100.487 147.388" stroke="white" stroke-linecap="round" stroke-linejoin="round"/>
<path d="M90.8331 123.399C93.7203 128.727 96.1977 134.266 98.244 139.97" stroke="white" stroke-linecap="round" stroke-linejoin="round"/>
<path d="M175.105 104.958C174.675 104.671 167.63 103.568 167.63 103.568L166.253 103.001C166.253 103.001 174.782 103.682 174.854 103.324C174.926 102.965 175.212 102.535 174.639 102.464C174.066 102.392 163.093 100.163 163.093 100.163C163.093 100.163 165.881 97.5256 166.239 96.9522C166.597 96.3788 167.092 95.2321 166.519 95.2321C165.945 95.2321 165.802 95.5904 165.021 96.0921C164.239 96.5938 161.158 97.8123 160.297 98.5218C159.437 99.2314 156.872 101.095 156.872 101.095L127.07 96.9952C127.07 96.9952 116.606 84.0943 114.334 81.3421C112.755 79.5054 110.957 77.8687 108.98 76.4684C106.787 75.5008 106.83 77.1206 106.83 77.1206L111.41 97.4754C111.41 97.4754 123.257 104.535 123.988 104.535C124.72 104.535 156.728 105.596 156.728 105.596C156.728 105.596 158.878 106.599 160.226 107.452C161.573 108.305 170.167 111.036 170.167 111.036C170.167 111.036 170.74 110.749 170.095 110.247C169.45 109.746 165.307 107.746 165.307 107.746L173.908 109.609C173.908 109.609 174.41 109.251 174.195 108.893C173.98 108.534 166.311 105.603 166.311 105.603L174.911 106.033C174.911 106.033 175.528 105.245 175.105 104.958Z" fill="white" stroke="#263238" stroke-linecap="round" stroke-linejoin="round"/>
<path d="M125.271 94.7805C122.182 90.9748 116.011 83.3775 114.334 81.3421C112.755 79.5054 110.957 77.8687 108.98 76.4684C106.787 75.5008 106.83 77.1206 106.83 77.1206L111.41 97.4754C111.41 97.4754 116.757 100.658 120.484 102.75L125.271 94.7805Z" fill="white" stroke="#263238" stroke-linecap="round" stroke-linejoin="round"/>
<path d="M93.5997 74.7264C93.5997 74.7264 87.3785 75.0131 83.5656 79.2346C79.7526 83.4561 80.2042 92.7448 81.781 98.3208C83.3577 103.897 85.3646 106.972 84.9274 108.907C84.4902 110.842 82.9277 111.48 83.7806 113.264C84.6335 115.049 89.5717 116.984 98.2942 116.698C107.017 116.411 108.665 114.547 108.737 112.913C108.808 111.279 108.163 109.91 108.378 108.907C108.593 107.903 114.886 102.327 114.886 96.1779C114.886 90.0284 112.17 87.8854 111.525 83.4489C110.88 79.0124 111.095 78.3745 108.45 76.4394C105.805 74.5043 97.1044 73.508 93.5997 74.7264Z" fill="white" stroke="#263238" stroke-linecap="round" stroke-linejoin="round"/>
<path d="M90.7757 96.0415C88.6965 97.7814 86.3887 99.2283 83.9167 100.342" stroke="#263238" stroke-linecap="round" stroke-linejoin="round"/>
<path d="M91.4639 96.7588C91.4639 96.7588 89.9229 101.733 86.1458 104.478" stroke="#263238" stroke-linecap="round" stroke-linejoin="round"/>
<path d="M106.902 79.2275L107.619 86.0937L104.608 82.589L106.902 79.2275Z" fill="white" stroke="#263238" stroke-linecap="round" stroke-linejoin="round"/>
<path d="M102.896 86.6675L106.902 79.2279L103.254 75.3003L102.896 86.6675Z" fill="white" stroke="#263238" stroke-linecap="round" stroke-linejoin="round"/>
<path d="M95.1764 62.5713C95.8011 65.0502 96.1117 67.5978 96.101 70.1542C96.0801 71.8095 95.9122 73.4596 95.5993 75.0852L102.895 86.6674L104.967 75.9166L106.329 68.4771C106.329 68.4771 98.0361 68.004 95.1764 62.5713Z" fill="white" stroke="#263238" stroke-linecap="round" stroke-linejoin="round"/>
<path d="M102.465 80.4458L102.895 86.6669L100.753 83.3055L102.465 80.4458Z" fill="white" stroke="#263238" stroke-linecap="round" stroke-linejoin="round"/>
<path d="M93.1696 74.7988L99.8207 86.7394L102.465 80.4466L95.3914 70.7207L93.1696 74.7988Z" fill="white" stroke="#263238" stroke-linecap="round" stroke-linejoin="round"/>
<path d="M209.694 80.3672H149.339V129.893H209.694V80.3672Z" fill="#2D66FE"/>
<path opacity="0.2" d="M209.694 80.3672H149.339V129.893H209.694V80.3672Z" fill="black"/>
<path d="M209.694 80.3672H149.339V129.893H209.694V80.3672Z" stroke="#263238" stroke-linecap="round" stroke-linejoin="round"/>
<path d="M196.915 80.3672H136.56V129.893H196.915V80.3672Z" fill="#2D66FE" stroke="#263238" stroke-linecap="round" stroke-linejoin="round"/>
<path d="M219.635 146.563C217.7 143.496 209.694 129.893 209.694 129.893H196.922L203.494 146.563H219.635Z" fill="#2D66FE"/>
<path opacity="0.2" d="M219.635 146.563C217.7 143.496 209.694 129.893 209.694 129.893H196.922L203.494 146.563H219.635Z" fill="black"/>
<path d="M219.635 146.563C217.7 143.496 209.694 129.893 209.694 129.893H196.922L203.494 146.563H219.635Z" stroke="#263238" stroke-linecap="round" stroke-linejoin="round"/>
<path d="M126.583 146.563C128.518 143.496 136.517 129.893 136.517 129.893H149.296L142.724 146.563H126.583Z" fill="#2D66FE" stroke="#263238" stroke-linecap="round" stroke-linejoin="round"/>
<path d="M136.517 129.893L130.962 146.563H193.998L196.922 129.893H136.517Z" fill="#2D66FE" stroke="#263238" stroke-linecap="round" stroke-linejoin="round"/>
<path d="M217.463 98.2852V114.87" stroke="#263238" stroke-linecap="round" stroke-linejoin="round"/>
<path d="M220.602 105.459V118.905" stroke="#263238" stroke-linecap="round" stroke-linejoin="round"/>
<path d="M130.073 114.87V125.176" stroke="#263238" stroke-linecap="round" stroke-linejoin="round"/>
<path d="M127.386 120.697V128.76" stroke="#263238" stroke-linecap="round" stroke-linejoin="round"/>
<path d="M83.2287 92.5301C85.3676 94.9526 87.8499 97.0486 90.5966 98.7512C94.8969 101.324 110.665 110.262 111.905 110.763C113.145 111.265 150.801 105.116 150.801 105.116C150.801 105.116 152.951 106.119 154.306 106.972C155.66 107.825 164.247 110.556 164.247 110.556C164.247 110.556 164.82 110.269 164.175 109.774C163.53 109.28 159.387 107.266 159.387 107.266L167.988 109.129C167.988 109.129 168.49 108.771 168.275 108.413C168.06 108.054 160.391 105.123 160.391 105.123L168.991 105.553C168.991 105.553 169.636 104.765 169.206 104.478C168.776 104.191 159.968 102.184 159.968 102.184C159.968 102.184 169.335 101.396 169.407 101.038C169.479 100.679 169.765 100.256 169.192 100.185C168.619 100.113 156.893 98.9662 156.893 98.9662C156.893 98.9662 159.968 97.0383 160.326 96.4649C160.685 95.8915 161.186 94.7448 160.613 94.7448C160.04 94.7448 159.896 95.1031 159.115 95.6048C158.334 96.1065 155.252 97.325 154.392 98.0345C153.532 98.7441 150.959 100.615 150.959 100.615L116.499 100.686L95.1047 83.8076" fill="white"/>
<path d="M83.2287 92.5301C85.3676 94.9526 87.8499 97.0486 90.5966 98.7512C94.8969 101.324 110.665 110.262 111.905 110.763C113.145 111.265 150.801 105.116 150.801 105.116C150.801 105.116 152.951 106.119 154.306 106.972C155.66 107.825 164.247 110.556 164.247 110.556C164.247 110.556 164.82 110.269 164.175 109.774C163.53 109.28 159.387 107.266 159.387 107.266L167.988 109.129C167.988 109.129 168.49 108.771 168.275 108.413C168.06 108.054 160.391 105.123 160.391 105.123L168.991 105.553C168.991 105.553 169.636 104.765 169.206 104.478C168.776 104.191 159.968 102.184 159.968 102.184C159.968 102.184 169.335 101.396 169.407 101.038C169.479 100.679 169.765 100.256 169.192 100.185C168.619 100.113 156.893 98.9662 156.893 98.9662C156.893 98.9662 159.968 97.0383 160.326 96.4649C160.685 95.8915 161.186 94.7448 160.613 94.7448C160.04 94.7448 159.896 95.1031 159.115 95.6048C158.334 96.1065 155.252 97.325 154.392 98.0345C153.532 98.7441 150.959 100.615 150.959 100.615L116.499 100.686L95.1047 83.8076" stroke="#263238" stroke-linecap="round" stroke-linejoin="round"/>
<path d="M169.178 100.185C168.611 100.113 156.879 98.9661 156.879 98.9661C156.879 98.9661 159.953 97.0381 160.312 96.4648C160.67 95.8914 161.172 94.7446 160.599 94.7446C160.025 94.7446 159.882 95.103 159.101 95.6047C158.319 96.1064 155.237 97.3248 154.377 98.0344C153.517 98.7439 150.944 100.615 150.944 100.615L116.484 100.686L112.664 97.6545C111.231 100.17 108.55 104.886 106.809 107.997C109.489 109.488 111.518 110.598 111.926 110.763C113.145 111.265 150.822 105.116 150.822 105.116C150.822 105.116 152.973 106.119 154.327 106.972C155.682 107.825 164.268 110.555 164.268 110.555C164.268 110.555 164.841 110.269 164.196 109.774C163.551 109.28 159.409 107.266 159.409 107.266L168.009 109.129C168.009 109.129 168.511 108.771 168.296 108.412C168.081 108.054 160.412 105.123 160.412 105.123L169.013 105.553C169.013 105.553 169.658 104.764 169.228 104.478C168.798 104.191 159.968 102.184 159.968 102.184C159.968 102.184 169.335 101.396 169.407 101.037C169.479 100.679 169.751 100.256 169.178 100.185Z" fill="white" stroke="#263238" stroke-linecap="round" stroke-linejoin="round"/>
<path d="M111.475 56.5652C111.597 56.4169 111.758 56.3059 111.94 56.2449C112.122 56.1839 112.318 56.1754 112.505 56.2202C112.692 56.265 112.862 56.3615 112.997 56.4985C113.131 56.6355 113.225 56.8077 113.266 56.9953C113.386 57.7727 113.346 58.5664 113.149 59.328C112.952 60.0895 112.602 60.8029 112.12 61.4246C111.331 62.213 110.615 62.428 110.615 61.4246C110.814 59.7905 111.101 58.1683 111.475 56.5652Z" fill="white" stroke="#263238" stroke-linecap="round" stroke-linejoin="round"/>
<path d="M102.673 44.0371C102.422 47.5251 100.929 50.8077 98.4662 53.29C96.1713 55.5466 93.5762 57.476 90.7543 59.0237C90.7543 59.0237 91.17 61.2671 92.0157 61.9694C92.8614 62.6718 94.5386 62.5356 94.5386 62.5356C95.5136 65.2015 97.0993 67.6021 99.1686 69.5452C102.53 72.6271 106.458 72.3475 108.701 67.7247C110.944 63.1019 112.07 58.4647 111.79 55.7985L111.51 53.1323C111.51 53.1323 104.214 49.0828 102.673 44.0371Z" fill="white" stroke="#263238" stroke-linecap="round" stroke-linejoin="round"/>
<path d="M102.25 57.898C102.607 57.898 102.895 57.3846 102.895 56.7512C102.895 56.1179 102.607 55.6045 102.25 55.6045C101.894 55.6045 101.605 56.1179 101.605 56.7512C101.605 57.3846 101.894 57.898 102.25 57.898Z" fill="#263238"/>
<path d="M105.755 67.0503C106.111 67.0503 106.4 66.5369 106.4 65.9036C106.4 65.2702 106.111 64.7568 105.755 64.7568C105.399 64.7568 105.11 65.2702 105.11 65.9036C105.11 66.5369 105.399 67.0503 105.755 67.0503Z" fill="#263238"/>
<path d="M108.472 57.898C108.828 57.898 109.117 57.3846 109.117 56.7512C109.117 56.1179 108.828 55.6045 108.472 55.6045C108.115 55.6045 107.827 56.1179 107.827 56.7512C107.827 57.3846 108.115 57.898 108.472 57.898Z" fill="#263238"/>
<path d="M107.181 55.5327C106.935 56.3913 106.862 57.2903 106.966 58.1774C107.181 59.3958 108.185 61.4672 107.325 61.8255C106.932 62.0045 106.498 62.0725 106.07 62.0219C105.641 61.9714 105.235 61.8043 104.895 61.5388" stroke="#263238" stroke-linecap="round" stroke-linejoin="round"/>
<path d="M100.387 54.6801C100.387 54.6801 100.731 52.4869 103.605 52.7378" stroke="#263238" stroke-linecap="round" stroke-linejoin="round"/>
<path d="M108.085 53.4115C108.085 53.4115 110.765 51.2614 111.632 55.1961" stroke="#263238" stroke-linecap="round" stroke-linejoin="round"/>
</svg>
